<svg width="23" height="18" viewBox="0 0 23 18" fill="none" xmlns="http://www.w3.org/2000/svg">
<path d="M22.2211 2.74416C21.4156 3.09386 20.5635 3.32426 19.6915 3.42806C20.6079 2.89183 21.297 2.03995 21.6297 1.03217C20.7633 1.53843 19.817 1.89365 18.8313 2.08261C18.4162 1.64792 17.9171 1.30211 17.3641 1.06621C16.8111 0.830301 16.2159 0.709224 15.6147 0.710335C13.1804 0.710335 11.2104 2.65029 11.2104 5.04171C11.2087 5.37434 11.2468 5.70599 11.324 6.02956C9.57849 5.94779 7.86923 5.50282 6.30563 4.72311C4.74202 3.94341 3.3585 2.84614 2.24358 1.50151C1.85244 2.16044 1.64558 2.91225 1.64463 3.67837C1.64463 5.18027 2.42877 6.50785 3.61281 7.28562C2.9113 7.26898 2.22416 7.08344 1.60974 6.74475V6.79839C1.60974 8.89926 3.1306 10.647 5.14351 11.0448C4.76499 11.1457 4.37493 11.1968 3.98318 11.1968C3.70521 11.1973 3.42787 11.1703 3.15521 11.1164C3.71479 12.8373 5.34346 14.0889 7.27273 14.1246C5.70506 15.3319 3.78038 15.9844 1.80119 15.9796C1.44987 15.9791 1.09889 15.9582 0.75 15.9171C2.76344 17.2018 5.1039 17.8814 7.4928 17.8749C15.6053 17.8749 20.0373 11.2728 20.0373 5.54681C20.0373 5.35907 20.0323 5.17133 20.0234 4.98807C20.8836 4.3766 21.6278 3.61674 22.2211 2.74416Z" fill="white"/>
</svg>
