<svg width="185" height="48" viewBox="0 0 185 48" fill="none" xmlns="http://www.w3.org/2000/svg">
<path d="M5.70119 13.3018L23.6843 0.611952L41.6675 13.3018L43.6656 35.2205L23.6843 44.4495L3.70306 35.2205L5.70119 13.3018Z" stroke="#091242"/>
<path d="M9.06473 15.2437L23.6843 4.92738L38.3039 15.2437L39.9283 33.0628L23.6843 40.5655L7.44033 33.0628L9.06473 15.2437Z" stroke="#091242"/>
<path d="M12.3789 17.1569L23.6847 9.17897L34.9905 17.1569L36.2467 30.937L23.6847 36.7391L11.1227 30.937L12.3789 17.1569Z" stroke="#091242"/>
<path d="M16.0545 19.2789L23.6847 13.8947L31.3148 19.2789L32.1626 28.5789L23.6847 32.4947L15.2067 28.5789L16.0545 19.2789Z" stroke="#091242"/>
<rect x="126.865" y="28.4324" width="57.5341" height="2.17102" fill="#091242"/>
<rect x="126.865" y="33.4983" width="57.5341" height="2.17102" fill="#091242"/>
<rect x="126.865" y="38.6848" width="57.5341" height="2.17102" fill="#091242"/>
</svg>
