<svg width="22" height="22" viewBox="0 0 22 22" fill="none" xmlns="http://www.w3.org/2000/svg">
<path d="M20.0104 0.125122L1.85845 0.125122C0.866598 0.125122 0 0.838791 0 1.81899L0 20.0113C0 20.9968 0.866598 21.875 1.85845 21.875L20.0051 21.875C21.0023 21.875 21.7499 20.991 21.7499 20.0113L21.7499 1.81899C21.7557 0.838791 21.0023 0.125122 20.0104 0.125122ZM6.74199 18.2548L3.62612 18.2548L3.62612 8.56681L6.74199 8.56681L6.74199 18.2548ZM5.29183 7.09384H5.2695C4.27231 7.09384 3.62661 6.35152 3.62661 5.4223C3.62661 4.47608 4.2893 3.75124 5.30883 3.75124C6.32835 3.75124 6.95221 4.47074 6.97454 5.4223C6.97406 6.35152 6.32835 7.09384 5.29183 7.09384ZM18.1296 18.2548L15.0138 18.2548L15.0138 12.9576C15.0138 11.6885 14.5603 10.8214 13.433 10.8214C12.5717 10.8214 12.062 11.404 11.8353 11.9715C11.7503 12.1755 11.7275 12.4532 11.7275 12.7367L11.7275 18.2548L8.61161 18.2548L8.61161 8.56681L11.7275 8.56681L11.7275 9.91502C12.1809 9.26931 12.8893 8.34009 14.5375 8.34009C16.5829 8.34009 18.1301 9.68829 18.1301 12.5949L18.1296 18.2548Z" fill="white"/>
</svg>
